<?xml version="1.0" encoding="utf-8"?>
<!-- Generator: Adobe Illustrator 23.0.6, SVG Export Plug-In . SVG Version: 6.00 Build 0)  -->
<svg version="1.1" id="Modo_de_aislamiento" xmlns="http://www.w3.org/2000/svg" xmlns:xlink="http://www.w3.org/1999/xlink"
	 x="0px" y="0px" width="118px" height="33px" viewBox="0 0 118 33" style="enable-background:new 0 0 118 33;"
	 xml:space="preserve">
<style type="text/css">
	.st0{fill-rule:evenodd;clip-rule:evenodd;fill:#FFFFFF;}
</style>
<g>
	<g>
		<path class="st0" d="M99.6,14.6V8h4.4c1,0,2.3-0.1,3.3,0.2c1.3,0.4,2.3,1.4,2.3,3c0,1.4-0.9,2.6-2.2,3.1c-1.1,0.3-2.3,0.3-3.4,0.3
			H99.6L99.6,14.6z M91.7,32.6h7.9V22.3h4.3c3.3,0,7.1,0,9.9-2.4c2.6-2.2,4.2-5.4,4.2-8.9c0-3.5-1.8-6.8-4.5-8.7
			c-2.8-2-5.9-1.9-9.1-1.9H91.7V32.6z"/>
		<rect y="0.4" class="st0" width="7.8" height="32.3"/>
		<polygon class="st0" points="9.9,32.6 18,32.6 18,13.9 34.1,32.6 41.7,32.6 41.7,0.4 33.4,0.4 33.4,18.2 18.2,0.4 9.9,0.4 		"/>
		<polygon class="st0" points="44.3,32.6 51.7,32.6 78.5,0.4 68.2,0.4 51.6,19.7 51.6,0.4 44.3,0.4 		"/>
		<path class="st0" d="M77.3,17.4H82v-5.4L77.3,17.4L77.3,17.4z M54.8,32.6L81.2,0.4h8.5v32.3H82v-8.3H71.3l-6.9,8.3H54.8z"/>
	</g>
</g>
</svg>
